<svg xmlns="http://www.w3.org/2000/svg" viewBox="0 0 840 600">
  <!-- Background and Title -->
  <rect width="840" height="600" fill="#f8f9fa" />
  <text x="420" y="35" font-family="Arial" font-size="22" text-anchor="middle" font-weight="bold">Database Utilities Flow Diagram</text>
  
  <!-- Helper Function: get_db_url -->
  <rect x="50" y="70" width="200" height="80" rx="5" fill="#e3f2fd" stroke="#1565c0" stroke-width="2" />
  <text x="150" y="100" font-family="Arial" font-size="14" text-anchor="middle" font-weight="bold">get_db_url()</text>
  <text x="150" y="125" font-family="Arial" font-size="12" text-anchor="middle">Returns database URL from env</text>
  <text x="150" y="140" font-family="Arial" font-size="12" text-anchor="middle">Handles postgres:// conversion</text>
  
  <!-- Connection Context Manager -->
  <rect x="50" y="200" width="700" height="200" rx="5" fill="#fff3e0" stroke="#e65100" stroke-width="2" />
  <text x="400" y="225" font-family="Arial" font-size="16" text-anchor="middle" font-weight="bold">@contextmanager get_db_connection()</text>
  
  <!-- Inside Connection Context Manager -->
  <rect x="70" y="245" width="200" height="50" rx="5" fill="#ffcc80" stroke="#e65100" stroke-width="1" />
  <text x="170" y="275" font-family="Arial" font-size="12" text-anchor="middle">1. Setup: Create connection</text>
  
  <rect x="300" y="245" width="200" height="50" rx="5" fill="#ffcc80" stroke="#e65100" stroke-width="1" />
  <text x="400" y="275" font-family="Arial" font-size="12" text-anchor="middle">2. yield conn</text>
  
  <rect x="530" y="245" width="200" height="50" rx="5" fill="#ffcc80" stroke="#e65100" stroke-width="1" />
  <text x="630" y="275" font-family="Arial" font-size="12" text-anchor="middle">3. Cleanup: Close connection</text>
  
  <!-- Outside Code Using Connection -->
  <rect x="300" y="170" width="200" height="50" rx="5" fill="#c8e6c9" stroke="#2e7d32" stroke-width="2" />
  <text x="400" y="195" font-family="Arial" font-size="12" text-anchor="middle" font-weight="bold">Your Code</text>
  <text x="400" y="215" font-family="Arial" font-size="12" text-anchor="middle">with get_db_connection() as conn:</text>
  
  <!-- Cursor Context Manager -->
  <rect x="300" y="320" width="200" height="100" rx="5" fill="#e8eaf6" stroke="#3f51b5" stroke-width="2" />
  <text x="400" y="345" font-family="Arial" font-size="14" text-anchor="middle" font-weight="bold">@contextmanager get_db_cursor()</text>
  <text x="400" y="365" font-family="Arial" font-size="12" text-anchor="middle">1. Uses get_db_connection()</text>
  <text x="400" y="385" font-family="Arial" font-size="12" text-anchor="middle">2. Creates cursor from conn</text>
  <text x="400" y="405" font-family="Arial" font-size="12" text-anchor="middle">3. Optional commit on exit</text>
  
  <!-- Query Execution Functions -->
  <rect x="50" y="450" width="200" height="90" rx="5" fill="#f3e5f5" stroke="#7b1fa2" stroke-width="2" />
  <text x="150" y="475" font-family="Arial" font-size="14" text-anchor="middle" font-weight="bold">execute_query()</text>
  <text x="150" y="495" font-family="Arial" font-size="12" text-anchor="middle">Uses get_db_cursor()</text>
  <text x="150" y="515" font-family="Arial" font-size="12" text-anchor="middle">Executes SQL with parameters</text>
  <text x="150" y="535" font-family="Arial" font-size="12" text-anchor="middle">Returns all results</text>
  
  <rect x="300" y="450" width="200" height="90" rx="5" fill="#f3e5f5" stroke="#7b1fa2" stroke-width="2" />
  <text x="400" y="475" font-family="Arial" font-size="14" text-anchor="middle" font-weight="bold">execute_query_single()</text>
  <text x="400" y="495" font-family="Arial" font-size="12" text-anchor="middle">Uses get_db_cursor()</text>
  <text x="400" y="515" font-family="Arial" font-size="12" text-anchor="middle">Executes SQL with parameters</text>
  <text x="400" y="535" font-family="Arial" font-size="12" text-anchor="middle">Returns a single result</text>
  
  <rect x="550" y="450" width="200" height="90" rx="5" fill="#f3e5f5" stroke="#7b1fa2" stroke-width="2" />
  <text x="650" y="475" font-family="Arial" font-size="14" text-anchor="middle" font-weight="bold">initialize_db()</text>
  <text x="650" y="495" font-family="Arial" font-size="12" text-anchor="middle">Reads schema.sql file</text>
  <text x="650" y="515" font-family="Arial" font-size="12" text-anchor="middle">Uses get_db_connection()</text>
  <text x="650" y="535" font-family="Arial" font-size="12" text-anchor="middle">Creates all database tables</text>
  
  <!-- Flow Arrows -->
  <!-- get_db_url to get_db_connection -->
  <path d="M150 150 L150 200" fill="none" stroke="#1565c0" stroke-width="2" stroke-dasharray="5,5" />
  <polygon points="150,200 145,190 155,190" fill="#1565c0" />
  
  <!-- Inside connection manager flow -->
  <path d="M270 270 L300 270" fill="none" stroke="#e65100" stroke-width="2" />
  <polygon points="300,270 290,265 290,275" fill="#e65100" />
  
  <path d="M500 270 L530 270" fill="none" stroke="#e65100" stroke-width="2" />
  <polygon points="530,270 520,265 520,275" fill="#e65100" />
  
  <!-- Your code to yield -->
  <path d="M400 220 L400 245" fill="none" stroke="#2e7d32" stroke-width="2" />
  <polygon points="400,245 395,235 405,235" fill="#2e7d32" />
  
  <!-- Connection to Cursor -->
  <path d="M400 300 L400 320" fill="none" stroke="#3f51b5" stroke-width="2" />
  <polygon points="400,320 395,310 405,310" fill="#3f51b5" />
  
  <!-- Cursor to query functions -->
  <path d="M300 370 L200 370 L200 450" fill="none" stroke="#7b1fa2" stroke-width="2" stroke-dasharray="5,5" />
  <polygon points="200,450 195,440 205,440" fill="#7b1fa2" />
  
  <path d="M400 420 L400 450" fill="none" stroke="#7b1fa2" stroke-width="2" stroke-dasharray="5,5" />
  <polygon points="400,450 395,440 405,440" fill="#7b1fa2" />
  
  <path d="M500 370 L600 370 L600 450" fill="none" stroke="#7b1fa2" stroke-width="2" stroke-dasharray="5,5" />
  <polygon points="600,450 595,440 605,440" fill="#7b1fa2" />
  
  <!-- Operation Sequence Labels -->
  <text x="400" y="565" font-family="Arial" font-size="16" text-anchor="middle" font-weight="bold" fill="#333">Actual Database Operations happen in YOUR CODE</text>
  <text x="400" y="585" font-family="Arial" font-size="14" text-anchor="middle" fill="#333">The utilities manage connections, provide context, and handle errors</text>
</svg>